Coordinates
version=1
nRows=9
nColumns=36
inDegrees=yes

Units are S.I. units (second, meters, Newtons, ...)
If the header above contains a line with 'inDegrees', this indicates whether rotational values are in degrees (yes) or radians (no).

endheader
time	pelvis_tilt	pelvis_list	pelvis_rotation	pelvis_tx	pelvis_ty	pelvis_tz	hip_flexion_r	hip_adduction_r	hip_rotation_r	knee_angle_r	knee_angle_r_beta	ankle_angle_r	subtalar_angle_r	mtp_angle_r	hip_flexion_l	hip_adduction_l	hip_rotation_l	knee_angle_l	knee_angle_l_beta	ankle_angle_l	subtalar_angle_l	mtp_angle_l	lumbar_extension	lumbar_bending	lumbar_rotation	arm_flex_r	arm_add_r	arm_rot_r	elbow_flex_r	pro_sup_r	arm_flex_l	arm_add_l	arm_rot_l	elbow_flex_l	pro_sup_l
      1.71666670	      1.28018176	      1.20966954	      4.68986086	     -0.12136122	      1.24448780	      0.07357932	     -0.82901097	     -2.30819708	     -0.49674531	      2.04363135	      0.03566810	     15.77943797	      5.09573696	     -7.49999987	     -3.56103099	      0.96494837	    -18.82959112	      0.53255390	      0.00929482	     10.33998005	      9.40526119	     -7.49999987	      3.39085432	      1.40278161	      0.70799210	     -0.01955285	     -5.32811273	     23.35182615	     22.52232348	     85.47530047	    -34.00745662	    -28.75473457	     49.94143929	     87.72595665	    111.40743729
      1.73333330	      1.15644137	      1.18474021	      4.69076024	     -0.12368718	      1.24885277	      0.07394583	     -0.61270436	     -2.30248906	     -0.44419064	      2.26042397	      0.03945184	     15.80048846	      4.85589638	     -7.49999987	     -3.41332425	      0.97249470	    -18.79720158	      0.55541325	      0.00969379	     10.54916117	      9.26101244	     -7.49999987	      3.48730678	      1.48685550	      1.07304736	     -0.21213181	     -5.58150471	     23.26955687	     22.72029912	     85.70217525	    -34.35165412	    -30.26679885	     46.86902404	     91.89047498	    111.23512397
      1.75000000	      1.21023475	      1.15223972	      4.68730304	     -0.12331941	      1.25080088	      0.07371189	     -0.62958321	     -2.27545842	     -0.44729245	      2.50699550	      0.04375533	     15.64338253	      4.43397693	     -7.49999987	     -3.44513822	      0.96339383	    -18.75223409	      0.59846525	      0.01044519	     10.47442735	      8.97730277	     -7.49999987	      3.34619172	      1.44135707	     -0.22807433	      0.53662031	     -5.75053823	     24.81294864	     22.59145784	     87.04522637	    -37.02234569	    -30.10798028	     40.22240439	     95.76162408	    111.97791119
      1.76666670	      1.08450640	      1.11715776	      4.61139789	     -0.12485229	      1.25281073	      0.07445569	     -0.29387401	     -2.24862671	     -0.44676767	      2.80564765	      0.04896779	     15.64922162	      4.29781025	     -7.49999987	     -3.23279762	      0.96540327	    -18.74922431	      0.62425021	      0.01089522	     10.37244400	      8.86452296	     -7.49999987	      3.34547777	      1.49420733	     -0.43389304	      0.79237105	     -6.11973821	     26.47117795	     22.69357088	     86.51080062	    -37.89453781	    -30.85487931	     36.07058969	     99.43332712	    111.63024926
      1.78333330	      0.95485319	      1.03309982	      4.60950739	     -0.12582947	      1.25407782	      0.07476578	      0.04046537	     -2.14501358	     -0.29691924	      3.05551685	      0.05332883	     15.57569433	      4.09835005	     -7.49999987	     -3.01447221	      0.89727430	    -18.70208366	      0.66292183	      0.01157017	     10.24335342	      8.57919086	     -7.49999987	      3.28576225	      1.64982965	     -0.71903662	      0.89286508	     -6.11920142	     25.30284020	     22.76407080	     90.67573750	    -38.45281746	    -31.59491509	     32.71142166	    102.33372205	    111.12654797
      1.80000000	      0.81542234	      0.98925792	      4.62615495	     -0.12903197	      1.25519770	      0.07376001	      0.42474070	     -2.10636371	     -0.28286908	      3.36293312	      0.05869426	     15.34330116	      3.82384460	     -7.49999987	     -2.72539697	      0.86448954	    -18.69250006	      0.73690936	      0.01286149	      9.83444336	      8.10630900	     -7.49999987	      3.13572359	      1.77933480	     -1.16788667	      1.42918120	     -6.49704377	     27.50687197	     22.80227355	     88.96320129	    -38.99205467	    -32.14751325	     29.76783890	    104.68148100	    110.53353880
      1.81666670	      0.59748816	      0.98147356	      4.64454191	     -0.13152143	      1.25679006	      0.07483804	      0.98962962	     -2.06896764	     -0.12885042	      3.73051137	      0.06510971	     15.13007893	      3.50591667	     -7.49999987	     -2.36691069	      0.85815384	    -18.77119238	      0.82777141	      0.01444734	      9.57756257	      7.92922302	     -7.49999987	      2.92742561	      1.87340107	     -1.47401254	      1.97803615	     -6.61632187	     28.63411895	     22.76870319	     88.24422166	    -38.89459212	    -32.87675306	     27.64568476	    106.39680363	    110.03602362
      1.83333330	      0.46921841	      0.95015135	      4.66127015	     -0.13257290	      1.25563975	      0.07495959	      1.45621330	     -2.04221060	     -0.29735360	      4.16787047	      0.07274306	     14.97165474	      3.35351188	     -7.49999987	     -2.09404301	      0.84023103	    -18.74394795	      0.91512542	      0.01597195	      9.31655566	      7.52238313	     -7.49999987	      2.58986940	      1.96747224	     -2.06366238	      2.58995077	     -6.71528294	     29.54751490	     22.87361076	     87.59449674	    -39.08141773	    -33.28118467	     25.40400449	    108.01087694	    109.91763133
      1.85000000	      0.18868103	      0.89785087	      4.60412104	     -0.13353036	      1.25615082	      0.07508131	      2.14248352	     -1.99798677	     -0.13584279	      4.63731205	      0.08093636	     14.81170419	      2.84131980	     -7.49999987	     -1.61900128	      0.79817754	    -19.11777832	      1.03043519	      0.01798449	      9.29391892	      7.80847551	     -7.49999987	      2.42301440	      2.11554061	     -2.40357590	      3.10471739	     -6.88575959	     31.09693611	     22.99677415	     84.68468454	    -38.66163411	    -33.74937528	     23.90371335	    108.83057142	    108.47832529
